<?xml version="1.0" encoding="UTF-8"?>
<svg xmlns="http://www.w3.org/2000/svg" xmlns:xlink="http://www.w3.org/1999/xlink" viewBox="0 0 480 480" width="480px" height="480px">
<g id="surface22672459">
<path style=" stroke:none;fill-rule:nonzero;fill:rgb(40.000001%,40.000001%,40.000001%);fill-opacity:1;" d="M 80 370 L 232.339844 84.359375 C 235.550781 78.339844 244.230469 78.449219 247.28125 84.558594 L 300 190 Z M 80 370 "/>
<path style=" stroke:none;fill-rule:nonzero;fill:rgb(40.000001%,40.000001%,40.000001%);fill-opacity:1;" d="M 80 369.921875 L 135.460938 27.929688 C 136.910156 18.980469 148.929688 17.039062 153.128906 25.078125 L 260 229.921875 Z M 80 369.921875 "/>
<path style=" stroke:none;fill-rule:nonzero;fill:rgb(68.627453%,68.627453%,68.627453%);fill-opacity:1;" d="M 80.078125 369.859375 L 82.078125 368.289062 L 257.371094 224.878906 L 207.929688 130.121094 Z M 80.078125 369.859375 "/>
<path style=" stroke:none;fill-rule:nonzero;fill:rgb(80.000001%,80.000001%,80.000001%);fill-opacity:1;" d="M 80 370 L 346.660156 112.871094 C 352.25 107.480469 361.578125 110.660156 362.71875 118.339844 L 400 370 L 250 457.429688 C 243.910156 460.851562 236.480469 460.851562 230.390625 457.429688 Z M 80 370 "/>
</g>
</svg>
