<?xml version="1.0" encoding="UTF-8"?>
<svg xmlns="http://www.w3.org/2000/svg" xmlns:xlink="http://www.w3.org/1999/xlink" viewBox="0 0 500 500" width="500px" height="500px">
<g id="surface22742269">
<path style=" stroke:none;fill-rule:nonzero;fill:rgb(68.627453%,68.627453%,68.627453%);fill-opacity:1;" d="M 291.71875 60.078125 C 237.765625 60.097656 183.808594 59.976562 129.824219 60.136719 C 111.34375 60.1875 96.910156 62.625 85.859375 71.40625 C 74.808594 80.1875 69.183594 93.703125 65 111.757812 C 44.097656 201.898438 23.355469 292.097656 2.734375 382.304688 C -1.324219 400.03125 -1.761719 414.886719 7.109375 425.839844 C 15.980469 436.796875 30.65625 439.683594 49.414062 439.746094 C 157.359375 440.105469 265.304688 440.066406 373.242188 439.746094 C 389.925781 439.695312 403.976562 436.390625 414.765625 427.96875 C 425.554688 419.546875 432.019531 406.75 435.644531 390.878906 C 456.628906 298.839844 477.339844 206.722656 497.597656 114.511719 C 501.300781 97.648438 501.582031 83.554688 493.085938 73.164062 C 484.589844 62.773438 470.796875 60.1875 453.652344 60.117188 C 399.636719 59.898438 345.660156 60.058594 291.71875 60.078125 Z M 291.738281 80.078125 C 345.714844 80.058594 399.652344 79.898438 453.574219 80.117188 C 468.511719 80.175781 475.28125 82.984375 477.597656 85.820312 C 479.914062 88.65625 481.273438 95.617188 478.066406 110.234375 C 457.824219 202.375 437.105469 294.449219 416.132812 386.445312 C 413.117188 399.644531 408.648438 407.359375 402.460938 412.1875 C 396.273438 417.019531 387.296875 419.703125 373.183594 419.746094 C 265.28125 420.066406 157.367188 420.105469 49.472656 419.746094 C 32.949219 419.691406 25.339844 416.578125 22.65625 413.261719 C 19.972656 409.945312 18.695312 402.253906 22.246094 386.757812 C 42.863281 296.566406 63.574219 206.386719 84.472656 116.269531 C 88.25 99.972656 92.582031 91.617188 98.300781 87.070312 C 104.019531 82.523438 113.183594 80.183594 129.882812 80.136719 C 183.800781 79.976562 237.753906 80.097656 291.738281 80.078125 Z M 192.695312 110.058594 C 186.351562 109.585938 179.855469 112.226562 173.320312 118.027344 C 160.089844 129.765625 163.609375 141.3125 174.628906 153.203125 C 198.699219 179.191406 220.953125 204.613281 245.253906 231.894531 C 249.425781 236.542969 254.488281 242.347656 260.566406 249.21875 C 255.945312 252.667969 248.644531 258.292969 243.164062 262.363281 C 203.855469 291.632812 164.375 320.699219 124.824219 349.628906 C 113.765625 357.71875 103.910156 366.3125 114.570312 380.761719 C 124.242188 393.863281 135.65625 391.644531 147.617188 382.773438 C 200.847656 343.324219 254.125 303.929688 307.714844 264.980469 C 321.675781 254.832031 324.632812 245.527344 311.953125 231.835938 C 278.003906 195.175781 244.628906 157.972656 211.230469 120.800781 C 205.234375 114.125 199.039062 110.53125 192.695312 110.058594 Z M 227.5 340 C 216.25 340 210 350 210 360 C 210 370 216.25 380 227.5 380 L 322.5 380 C 333.75 380 340 370 340 360 C 340 350 333.75 340 322.5 340 Z M 227.5 340 "/>
</g>
</svg>
