<?xml version="1.0" encoding="UTF-8"?>
<svg xmlns="http://www.w3.org/2000/svg" xmlns:xlink="http://www.w3.org/1999/xlink" viewBox="0 0 480 480" width="480px" height="480px">
<g id="surface23334588">
<path style=" stroke:none;fill-rule:nonzero;fill:rgb(68.627453%,68.627453%,68.627453%);fill-opacity:1;" d="M 240.46875 50 C 224.921875 50.050781 214.140625 51.421875 201.109375 53.671875 C 162.628906 60.371094 155.621094 74.441406 155.621094 100.371094 L 155.621094 140 L 245.621094 140 L 245.621094 160 L 108.699219 160 C 82.339844 160 59.269531 172.421875 51.960938 202.191406 C 43.699219 236.359375 43.328125 257.761719 51.960938 293.441406 C 58.511719 320.050781 72.941406 340 99.308594 340 L 135.628906 340 L 135.628906 288.960938 C 135.628906 259.300781 162.488281 230 193.269531 230 L 265.628906 230 C 290.859375 230 315.628906 211.378906 315.628906 186.230469 L 315.628906 100.371094 C 315.628906 75.980469 298.039062 57.738281 273.449219 53.648438 C 274.058594 53.589844 255.890625 49.941406 240.46875 50 Z M 190.628906 90 C 198.839844 90 205.628906 96.769531 205.628906 105.019531 C 205.628906 113.351562 198.839844 120 190.628906 120 C 182.261719 120 175.628906 113.359375 175.628906 105.019531 C 175.628906 96.800781 182.261719 90 190.628906 90 Z M 190.628906 90 "/>
<path style=" stroke:none;fill-rule:nonzero;fill:rgb(80.000001%,80.000001%,80.000001%);fill-opacity:1;" d="M 230.78125 430 C 246.328125 429.949219 257.109375 428.578125 270.140625 426.328125 C 308.621094 419.628906 315.628906 405.558594 315.628906 379.628906 L 315.628906 340 L 225.628906 340 L 225.628906 320 L 362.558594 320 C 388.921875 320 411.988281 307.578125 419.300781 277.808594 C 427.558594 243.640625 427.929688 222.238281 419.300781 186.558594 C 412.738281 159.949219 398.308594 140 371.941406 140 L 335.621094 140 L 335.621094 191.039062 C 335.621094 220.699219 308.761719 250 277.980469 250 L 205.621094 250 C 180.390625 250 155.621094 268.621094 155.621094 293.769531 L 155.621094 379.628906 C 155.621094 404.019531 173.210938 422.261719 197.800781 426.351562 C 197.191406 426.410156 215.359375 430.058594 230.78125 430 Z M 280.628906 390 C 272.421875 390 265.628906 383.230469 265.628906 374.980469 C 265.628906 366.648438 272.421875 360 280.628906 360 C 289 360 295.628906 366.640625 295.628906 374.980469 C 295.628906 383.199219 288.988281 390 280.628906 390 Z M 280.628906 390 "/>
</g>
</svg>
