<?xml version="1.0" encoding="UTF-8"?>
<svg xmlns="http://www.w3.org/2000/svg" xmlns:xlink="http://www.w3.org/1999/xlink" viewBox="0 0 480 480" width="480px" height="480px">
<g id="surface22998734">
<path style=" stroke:none;fill-rule:nonzero;fill:rgb(80.000001%,80.000001%,80.000001%);fill-opacity:1;" d="M 440 111.101562 L 440 368.898438 C 440 381.601562 432.101562 392.898438 420.199219 397.101562 L 332 438.5 L 340 330 L 340 150 L 332 41.5 L 420.199219 82.898438 C 432.101562 87.101562 440 98.398438 440 111.101562 Z M 440 111.101562 "/>
<path style=" stroke:none;fill-rule:nonzero;fill:rgb(68.627453%,68.627453%,68.627453%);fill-opacity:1;" d="M 90 338.960938 L 340 150 L 340 53.53125 C 340 41.550781 325.179688 35.949219 317.25 44.929688 L 46.578125 292.390625 C 37.578125 300.691406 38.089844 315.058594 47.648438 322.710938 C 47.648438 322.710938 60.890625 335.03125 65.679688 338.449219 C 73.039062 343.699219 82.710938 344.300781 90 338.960938 Z M 90 338.960938 "/>
<path style=" stroke:none;fill-rule:nonzero;fill:rgb(68.627453%,68.627453%,68.627453%);fill-opacity:1;" d="M 90 141.039062 L 340 330 L 340 426.46875 C 340 438.449219 325.179688 444.050781 317.25 435.070312 L 46.578125 187.609375 C 37.578125 179.308594 38.089844 164.941406 47.648438 157.289062 C 47.648438 157.289062 60.890625 144.96875 65.679688 141.550781 C 73.039062 136.300781 82.710938 135.699219 90 141.039062 Z M 90 141.039062 "/>
</g>
</svg>
