<?xml version="1.0" encoding="UTF-8"?>
<svg xmlns="http://www.w3.org/2000/svg" xmlns:xlink="http://www.w3.org/1999/xlink" viewBox="0 0 500 500" width="500px" height="500px">
<g id="surface23279244">
<path style=" stroke:none;fill-rule:nonzero;fill:rgb(68.627453%,68.627453%,68.627453%);fill-opacity:1;" d="M 345.859375 30 C 292.261719 30 255.976562 45.839844 255.976562 45.839844 C 251.640625 47.742188 249.230469 52.421875 250.207031 57.054688 C 251.179688 61.6875 255.265625 65.003906 260 65 C 302.160156 65 317.042969 72.386719 332.167969 83.613281 C 334.707031 85.5 337.5 87.933594 340.136719 90.800781 L 18.613281 140.390625 L 68.730469 471.464844 L 230.664062 445.644531 C 232.660156 458.667969 241.632812 470.289062 255.078125 474.53125 L 267.089844 478.339844 C 267.121094 478.351562 267.15625 478.367188 267.1875 478.378906 C 276.113281 481.121094 285.367188 481.125 293.4375 477.558594 C 301.507812 473.992188 307.847656 466.871094 311.230469 457.929688 C 311.308594 457.71875 311.382812 457.503906 311.445312 457.285156 C 311.445312 457.285156 317.910156 435.632812 319.140625 431.542969 L 471.445312 407.265625 L 426.230469 122.011719 C 427.082031 121.761719 427.917969 121.589844 428.710938 121.582031 C 430.902344 121.5625 432.308594 122.242188 432.128906 122.109375 C 432.148438 122.121094 432.167969 122.136719 432.1875 122.148438 C 433.464844 123.09375 433.167969 122.800781 433.4375 123.046875 C 433.304688 127.503906 436.140625 131.511719 440.390625 132.871094 L 461.015625 139.453125 C 466.257812 141.117188 471.859375 138.238281 473.554688 133.007812 L 489.511719 83.710938 C 490.332031 81.175781 490.105469 78.417969 488.886719 76.046875 C 487.664062 73.679688 485.550781 71.894531 483.007812 71.09375 L 462.363281 64.609375 C 457.480469 63.078125 452.230469 65.480469 450.195312 70.175781 C 449.773438 71.148438 449.671875 71.03125 449.960938 70.820312 C 450.25 70.609375 450.488281 70.800781 448.847656 70.800781 C 447.769531 70.800781 444.472656 69.054688 441.660156 65.898438 C 438.847656 62.742188 437.089844 59.53125 437.089844 59.53125 C 436.277344 58.027344 435.09375 56.757812 433.652344 55.839844 C 414.167969 43.488281 382.511719 30 345.859375 30 Z M 345.859375 50 C 376.9375 50 404.941406 61.757812 421.738281 72.1875 C 422.835938 74.023438 423.597656 75.679688 426.738281 79.199219 C 431.292969 84.308594 438.292969 90.800781 448.847656 90.800781 C 453.578125 90.800781 458.257812 89.546875 461.816406 86.933594 C 462.3125 86.570312 462.316406 86.097656 462.753906 85.703125 L 467.382812 87.148438 L 457.597656 117.363281 L 451.855469 115.527344 C 451.605469 114.867188 451.957031 114.195312 451.601562 113.59375 C 449.429688 109.90625 446.878906 108.148438 444.101562 106.09375 C 439.019531 102.296875 433.484375 101.539062 428.554688 101.582031 C 428.546875 101.582031 428.542969 101.582031 428.535156 101.582031 C 416.34375 101.699219 406.546875 109.5625 399.199219 119.570312 C 391.851562 129.578125 385.9375 142.503906 380.410156 157.285156 C 369.359375 186.84375 360.175781 223.925781 350.429688 257.011719 C 331.429688 321.503906 292.703125 450.117188 292.460938 450.917969 C 290.636719 455.675781 288.265625 457.988281 285.351562 459.277344 C 282.414062 460.574219 278.378906 460.894531 273.046875 459.257812 L 261.152344 455.46875 C 261.140625 455.460938 261.125 455.457031 261.113281 455.449219 C 252.238281 452.667969 247.777344 443.292969 251.132812 434.765625 C 251.253906 434.476562 306.242188 302.808594 324.667969 258.886719 C 346.074219 207.839844 365.632812 156.625 369.921875 121.210938 L 369.921875 121.191406 C 373.160156 94.351562 355.484375 76.023438 344.082031 67.558594 C 336.523438 61.945312 327.21875 57.359375 316.367188 53.496094 C 326.296875 52.191406 333.550781 50 345.859375 50 Z M 349.765625 109.570312 C 350.253906 112.464844 350.476562 115.5 350.078125 118.789062 C 350.078125 118.796875 350.078125 118.800781 350.078125 118.808594 C 346.421875 149.035156 327.441406 200.566406 306.230469 251.152344 C 287.996094 294.613281 234.996094 421.535156 233.574219 424.941406 L 85.488281 448.535156 L 41.386719 157.128906 Z M 409.101562 141.777344 L 448.554688 390.664062 L 325.488281 410.273438 C 337.1875 371.335938 355.121094 311.839844 369.609375 262.65625 C 379.53125 228.972656 388.769531 192.074219 399.160156 164.277344 C 402.371094 155.691406 405.734375 148.15625 409.101562 141.777344 Z M 229.199219 159.042969 C 226.339844 158.820312 223.414062 159.667969 221.035156 161.621094 L 212.539062 168.730469 C 207.777344 172.652344 207.21875 179.589844 211.230469 184.121094 L 286.367188 269.238281 L 301.425781 235.917969 L 277.421875 209.316406 L 236.894531 162.871094 C 234.839844 160.5625 232.058594 159.265625 229.199219 159.042969 Z M 192.5 194.296875 C 188.144531 194.359375 184.027344 196.921875 182.265625 201.09375 L 176.210938 215.703125 L 207.304688 228.144531 L 213.476562 213.417969 C 215.726562 207.859375 213.015625 201.519531 207.285156 199.238281 L 196.855469 195.097656 C 195.425781 194.523438 193.953125 194.277344 192.5 194.296875 Z M 171.953125 225.742188 L 128.183594 330.117188 L 159.140625 342.441406 L 203.046875 238.164062 Z M 391.953125 228.144531 L 391.308594 228.222656 L 381.210938 262.890625 L 397.265625 260.390625 Z M 253.769531 249.84375 L 207.304688 256.933594 L 192.382812 292.265625 L 279.335938 278.964844 Z M 142.558594 266.855469 L 91.601562 274.707031 L 96.757812 306.992188 L 127.734375 302.1875 Z M 373.691406 288.417969 L 361.738281 329.472656 C 362.667969 329.832031 363.597656 330.1875 364.628906 330.546875 C 386.089844 337.566406 390.195312 350.898438 390.195312 350.898438 C 390.195312 350.898438 395.703125 342.804688 395.703125 323.964844 C 395.703125 301.925781 381.152344 292.066406 373.691406 288.417969 Z M 124.042969 340.273438 L 123.691406 342.226562 L 118.867188 394.6875 L 153.535156 354.335938 C 154.09375 353.785156 154.425781 353.140625 154.765625 352.480469 L 125.820312 340.917969 Z M 124.042969 340.273438 "/>
</g>
</svg>
